<?xml version="1.0" encoding="utf-8"?>
<!-- Generator: Adobe Illustrator 21.1.0, SVG Export Plug-In . SVG Version: 6.00 Build 0)  -->
<svg version="1.1" id="Layer_1" xmlns="http://www.w3.org/2000/svg" xmlns:xlink="http://www.w3.org/1999/xlink" x="0px" y="0px"
	 viewBox="0 0 300 300" style="enable-background:new 0 0 300 300;" xml:space="preserve">
<style type="text/css">
	.st0{fill:#FFFFFF;}
</style>
<g>
	<polygon class="st0" points="50.6,128.3 50.6,117.2 0.8,117.2 0.8,128.9 33.6,128.9 10.6,157.9 27.2,157.9 	"/>
	<rect y="171.4" class="st0" width="50.7" height="11.5"/>
	<path class="st0" d="M63.3,171.4c1.3,2.1,2.9,4,4.7,5.7c5,5.1,12.1,7.7,21.5,7.7c9.4,0,16.6-2.6,21.5-7.7c1.8-1.7,3.3-3.6,4.6-5.7"
		/>
	<path class="st0" d="M71.6,150c0-7.4,1.6-13.1,4.9-17.1c3.2-4,7.6-6,13-6s9.8,2,12.9,6c3.2,4,4.8,9.7,4.8,17.1
		c0,2.9-0.2,5.5-0.7,7.9h13.9c0.4-2.5,0.6-5.1,0.6-7.9c0-12-3.3-21.1-9.9-27.1c-5-5.1-12.1-7.7-21.5-7.7c-9.4,0-16.6,2.6-21.5,7.7
		c-6.7,6-10,15.1-10,27.1c0,2.8,0.2,5.4,0.6,7.9h13.8C71.8,155.5,71.6,152.9,71.6,150z"/>
	<polygon class="st0" points="162.3,148.9 182.4,117.2 166.5,117.2 154.5,138.6 142.8,117.2 126.4,117.2 146.5,149.5 141.2,157.9 
		167.9,157.9 	"/>
	<polygon class="st0" points="125.4,182.9 141.3,182.9 148.1,171.4 132.6,171.4 	"/>
	<polygon class="st0" points="167,182.9 183.6,182.9 176.4,171.4 160.6,171.4 	"/>
	<polygon class="st0" points="202.6,117.2 187.9,117.2 201.7,157.9 214.2,157.9 	"/>
	<polygon class="st0" points="210.1,182.9 223.1,182.9 227,171.4 206.2,171.4 	"/>
	<polygon class="st0" points="245.5,117.2 231.2,117.2 219.5,157.9 231.6,157.9 	"/>
	<polygon class="st0" points="270,132.3 278.2,157.9 291.1,157.9 276.8,117.2 261.2,117.2 246.7,157.9 261.5,157.9 	"/>
	<polygon class="st0" points="285.1,182.9 300,182.9 295.9,171.4 281.4,171.4 	"/>
	<polygon class="st0" points="237.8,182.9 252.1,182.9 255.9,171.4 241.9,171.4 	"/>
</g>
</svg>
