<?xml version="1.0" encoding="utf-8"?>
<!-- Generator: Adobe Illustrator 22.0.1, SVG Export Plug-In . SVG Version: 6.00 Build 0)  -->
<svg version="1.1" id="Layer_1" xmlns="http://www.w3.org/2000/svg" xmlns:xlink="http://www.w3.org/1999/xlink" x="0px" y="0px"
	 viewBox="0 0 98.7 101.6" style="enable-background:new 0 0 98.7 101.6;" xml:space="preserve">
<style type="text/css">
	.st0{fill:none;stroke:#000000;stroke-width:3;stroke-miterlimit:10;}
	.st1{clip-path:url(#SVGID_2_);stroke:#000000;stroke-miterlimit:10;}
</style>
<circle class="st0" cx="49" cy="50.7" r="44"/>
<g>
	<g>
		<defs>
			<rect id="SVGID_1_" x="34.5" y="36.4" width="28.9" height="28.9"/>
		</defs>
		<clipPath id="SVGID_2_">
			<use xlink:href="#SVGID_1_"  style="overflow:visible;"/>
		</clipPath>
		<path class="st1" d="M60.1,48.6h-2.5c0.2,0.7,0.3,1.5,0.3,2.2c0,4.9-4,8.9-8.9,8.9s-8.9-4-8.9-8.9c0-0.8,0.1-1.5,0.3-2.2h-2.5
			v12.2c0,0.6,0.5,1.1,1.1,1.1h20c0.6,0,1.1-0.5,1.1-1.1C60.1,60.8,60.1,48.6,60.1,48.6z M60.1,40.8c0-0.6-0.5-1.1-1.1-1.1h-3.3
			c-0.6,0-1.1,0.5-1.1,1.1v3.3c0,0.6,0.5,1.1,1.1,1.1H59c0.6,0,1.1-0.5,1.1-1.1V40.8z M49,45.3c-3.1,0-5.6,2.5-5.6,5.6
			s2.5,5.6,5.6,5.6s5.6-2.5,5.6-5.6S52,45.3,49,45.3 M60.1,65.3H37.9c-1.8,0-3.3-1.5-3.3-3.3V39.7c0-1.8,1.5-3.3,3.3-3.3h22.2
			c1.8,0,3.3,1.5,3.3,3.3v22.2C63.4,63.8,61.9,65.3,60.1,65.3"/>
		<use xlink:href="#SVGID_1_"  style="overflow:visible;fill:none;stroke:#FFFFFF;stroke-miterlimit:10;"/>
	</g>
</g>
</svg>
