<?xml version="1.0" encoding="utf-8"?>
<!-- Generator: Adobe Illustrator 22.0.1, SVG Export Plug-In . SVG Version: 6.00 Build 0)  -->
<svg version="1.1" id="Layer_1" xmlns="http://www.w3.org/2000/svg" xmlns:xlink="http://www.w3.org/1999/xlink" x="0px" y="0px"
	 viewBox="0 0 98.7 101.6" style="enable-background:new 0 0 98.7 101.6;" xml:space="preserve">
<style type="text/css">
	.st0{fill:none;stroke:#000000;stroke-width:3;stroke-miterlimit:10;}
	.st1{stroke:#FFFFFF;stroke-miterlimit:10;}
</style>
<circle class="st0" cx="49" cy="50.7" r="44"/>
<g>
	<g>
		<path class="st1" d="M60.2,48.6h-2.5c0.2,0.7,0.3,1.5,0.3,2.2c0,4.9-4,9-9,9s-9-4-9-9c0-0.8,0.1-1.5,0.3-2.2h-2.5v12.3
			c0,0.6,0.5,1.1,1.1,1.1h20.2c0.6,0,1.1-0.5,1.1-1.1C60.2,60.9,60.2,48.6,60.2,48.6z M60.2,40.7c0-0.6-0.5-1.1-1.1-1.1h-3.3
			c-0.6,0-1.1,0.5-1.1,1.1V44c0,0.6,0.5,1.1,1.1,1.1h3.3c0.6,0,1.1-0.5,1.1-1.1V40.7z M49,45.2c-3.1,0-5.7,2.5-5.7,5.7
			c0,3.1,2.5,5.7,5.7,5.7c3.1,0,5.7-2.5,5.7-5.7C54.7,47.8,52,45.2,49,45.2 M60.2,65.4H37.8c-1.8,0-3.3-1.5-3.3-3.3V39.6
			c0-1.8,1.5-3.3,3.3-3.3h22.4c1.8,0,3.3,1.5,3.3,3.3V62C63.6,63.9,62,65.4,60.2,65.4"/>
	</g>
</g>
</svg>
