<?xml version="1.0" encoding="utf-8"?>
<!-- Generator: Adobe Illustrator 22.1.0, SVG Export Plug-In . SVG Version: 6.00 Build 0)  -->
<svg version="1.1" id="Layer_1" xmlns="http://www.w3.org/2000/svg" xmlns:xlink="http://www.w3.org/1999/xlink" x="0px" y="0px"
	 viewBox="0 0 82 82" style="enable-background:new 0 0 82 82;" xml:space="preserve">
<title>YouTube 2</title>
<g id="Layer_2_1_">
	<g id="Icons">
		<path d="M41,82C18.4,82,0,63.6,0,41S18.4,0,41,0s41,18.4,41,41S63.6,82,41,82z M41,2C19.5,2,2,19.5,2,41s17.5,39,39,39
			s39-17.5,39-39S62.5,2,41,2z"/>
		<path d="M48,41l-11.8,6.9V34.1L48,41z M59,47.4V34.6c0,0,0-6.2-6.2-6.2H29.2c0,0-6.2,0-6.2,6.2v12.9c0,0,0,6.2,6.2,6.2h23.6
			C52.8,53.6,59,53.6,59,47.4"/>
	</g>
</g>
</svg>
