<?xml version="1.0" encoding="utf-8"?>
<!-- Generator: Adobe Illustrator 22.1.0, SVG Export Plug-In . SVG Version: 6.00 Build 0)  -->
<svg version="1.1" id="Layer_1" xmlns="http://www.w3.org/2000/svg" xmlns:xlink="http://www.w3.org/1999/xlink" x="0px" y="0px"
	 viewBox="0 0 82 82" style="enable-background:new 0 0 82 82;" xml:space="preserve">
<title>YouTube 1</title>
<g id="Layer_2_1_">
	<g id="Icons">
		<path d="M41,82C18.4,82,0,63.6,0,41S18.4,0,41,0s41,18.4,41,41S63.6,82,41,82z M41,2C19.5,2,2,19.5,2,41s17.5,39,39,39
			s39-17.5,39-39S62.5,2,41,2z"/>
		<path d="M48.4,28.8v6.9c-0.2,0.2-0.3,0.4-0.6,0.5c-0.2,0.1-0.3,0.2-0.5,0.2c-0.1,0-0.3,0-0.4-0.2c-0.1-0.1-0.1-0.3-0.1-0.5v-6.9
			h-1.8v7.5c0,0.4,0.1,0.9,0.3,1.2c0.2,0.3,0.6,0.4,1,0.4c0.4,0,0.8-0.1,1.1-0.3c0.4-0.2,0.8-0.5,1-0.8v1h1.8v-9L48.4,28.8z
			 M42.7,29.3c-0.5-0.5-1.2-0.7-1.9-0.7c-0.7,0-1.4,0.2-2,0.6c-0.5,0.4-0.8,1-0.7,1.7v4.7c0,0.7,0.2,1.4,0.7,1.8
			c1.1,0.9,2.8,0.9,3.9,0c0.5-0.5,0.8-1.1,0.7-1.8V31C43.5,30.3,43.2,29.7,42.7,29.3L42.7,29.3z M41.6,35.8c0,0.2-0.1,0.4-0.2,0.6
			c-0.2,0.2-0.4,0.2-0.6,0.2c-0.2,0-0.4-0.1-0.6-0.2C40.1,36.2,40,36,40,35.8v-4.9c0-0.2,0.1-0.4,0.2-0.5c0.1-0.1,0.3-0.2,0.5-0.2
			c0.2,0,0.4,0.1,0.6,0.2c0.1,0.1,0.2,0.3,0.2,0.5V35.8z M35.8,25.6l-1.3,4.9h-0.2L33,25.6h-2.1l2.5,7.4v4.8h2.1v-5l2.4-7.2H35.8z
			 M50.2,47.2c0.1,0.2,0.2,0.5,0.2,0.7v0.8H49v-0.8c0-0.3,0-0.5,0.2-0.7C49.5,46.9,49.9,46.9,50.2,47.2
			C50.3,47.2,50.3,47.2,50.2,47.2L50.2,47.2z M44.5,47.2C44.4,47.1,44.2,47,44,47c-0.1,0-0.2,0-0.3,0.1c-0.1,0.1-0.2,0.2-0.3,0.3
			v5.1c0.1,0.1,0.2,0.2,0.4,0.3c0.1,0.1,0.2,0.1,0.4,0.1c0.2,0,0.3,0,0.5-0.2c0.1-0.2,0.2-0.4,0.2-0.6v-4.3
			C44.8,47.6,44.7,47.3,44.5,47.2L44.5,47.2z M44.5,47.2C44.4,47.1,44.2,47,44,47c-0.1,0-0.2,0-0.3,0.1c-0.1,0.1-0.2,0.2-0.3,0.3
			v5.1c0.1,0.1,0.2,0.2,0.4,0.3c0.1,0.1,0.2,0.1,0.4,0.1c0.2,0,0.3,0,0.5-0.2c0.1-0.2,0.2-0.4,0.2-0.6v-4.3
			C44.8,47.6,44.7,47.3,44.5,47.2L44.5,47.2z M53.9,40.9H28.1c-2.8,0-5.1,2.3-5.1,5.1v5.2c0,2.8,2.3,5.1,5.1,5.1h25.7
			c2.8,0,5.1-2.3,5.1-5.2V46C59,43.2,56.7,40.9,53.9,40.9L53.9,40.9z M35.1,44.5h-1.9V54h-1.8v-9.5h-1.9v-1.6h5.7L35.1,44.5z
			 M40.5,54h-1.7v-1c-0.3,0.3-0.6,0.6-0.9,0.8c-0.3,0.2-0.6,0.3-1,0.3c-0.3,0-0.7-0.1-0.9-0.4c-0.2-0.3-0.3-0.7-0.3-1.1v-6.8h1.6V52
			c0,0.1,0,0.3,0.1,0.4c0.1,0.1,0.2,0.1,0.3,0.1c0.2,0,0.3-0.1,0.5-0.2c0.2-0.1,0.4-0.3,0.5-0.4v-6.2h1.7L40.5,54z M46.5,52.3
			c0,0.5-0.2,0.9-0.5,1.3c-0.3,0.3-0.7,0.5-1.1,0.5c-0.3,0-0.6-0.1-0.9-0.2c-0.3-0.1-0.5-0.3-0.7-0.6V54h-1.6V42.8h1.7v3.6
			c0.2-0.2,0.4-0.4,0.7-0.6c0.2-0.1,0.5-0.2,0.8-0.2c0.5,0,0.9,0.2,1.2,0.5c0.3,0.4,0.5,1,0.4,1.5L46.5,52.3z M52.2,50.1H49v1.5
			c0,0.3,0,0.6,0.2,0.9c0.1,0.2,0.3,0.3,0.6,0.2c0.2,0,0.4-0.1,0.6-0.2c0.1-0.3,0.2-0.6,0.2-0.9v-0.4h1.7v0.4
			c0.1,0.7-0.2,1.4-0.6,1.9c-0.5,0.5-1.2,0.7-1.8,0.6c-0.6,0-1.3-0.2-1.7-0.7c-0.4-0.5-0.7-1.2-0.6-1.9V48c0-0.7,0.2-1.3,0.7-1.7
			c0.5-0.5,1.1-0.7,1.8-0.7c0.6,0,1.3,0.2,1.7,0.6c0.4,0.5,0.7,1.1,0.6,1.8L52.2,50.1z M44,47c-0.1,0-0.2,0-0.3,0.1
			c-0.1,0.1-0.2,0.2-0.3,0.3v5.1c0.1,0.1,0.2,0.2,0.4,0.3c0.1,0.1,0.2,0.1,0.4,0.1c0.2,0,0.3,0,0.5-0.2c0.1-0.2,0.2-0.4,0.2-0.6
			v-4.2c0-0.2,0-0.4-0.2-0.6C44.4,47,44.2,46.9,44,47z M44.5,47.2C44.4,47,44.2,46.9,44,47c-0.1,0-0.2,0-0.3,0.1
			c-0.1,0.1-0.2,0.2-0.3,0.3v5.1c0.1,0.1,0.2,0.2,0.4,0.3c0.1,0.1,0.2,0.1,0.4,0.1c0.2,0,0.3,0,0.5-0.2c0.1-0.2,0.2-0.4,0.2-0.6
			v-4.2C44.7,47.6,44.7,47.4,44.5,47.2L44.5,47.2z M44.5,47.2C44.4,47,44.2,46.9,44,47c-0.1,0-0.2,0-0.3,0.1
			c-0.1,0.1-0.2,0.2-0.3,0.3v5.1c0.1,0.1,0.2,0.2,0.4,0.3c0.1,0.1,0.2,0.1,0.4,0.1c0.2,0,0.3,0,0.5-0.2c0.1-0.2,0.2-0.4,0.2-0.6
			v-4.2C44.7,47.6,44.7,47.4,44.5,47.2L44.5,47.2z"/>
	</g>
</g>
</svg>
